<svg xmlns="http://www.w3.org/2000/svg" width="980" height="520" viewBox="0 0 980 520">
<rect width="100%" height="100%" fill="white"/>
<text x="70" y="26" font-family="Arial" font-size="18" font-weight="700">HI1 and three-stage piecewise fit</text>
<line x1="70" y1="455" x2="955" y2="455" stroke="#333"/>
<line x1="70" y1="45" x2="70" y2="455" stroke="#333"/>
<line x1="70.0" y1="455" x2="70.0" y2="460" stroke="#333"/>
<text x="70.0" y="482" font-family="Arial" font-size="11" text-anchor="middle">0</text>
<line x1="247.0" y1="455" x2="247.0" y2="460" stroke="#333"/>
<text x="247.0" y="482" font-family="Arial" font-size="11" text-anchor="middle">700</text>
<line x1="424.0" y1="455" x2="424.0" y2="460" stroke="#333"/>
<text x="424.0" y="482" font-family="Arial" font-size="11" text-anchor="middle">1400</text>
<line x1="601.0" y1="455" x2="601.0" y2="460" stroke="#333"/>
<text x="601.0" y="482" font-family="Arial" font-size="11" text-anchor="middle">2100</text>
<line x1="778.0" y1="455" x2="778.0" y2="460" stroke="#333"/>
<text x="778.0" y="482" font-family="Arial" font-size="11" text-anchor="middle">2800</text>
<line x1="955.0" y1="455" x2="955.0" y2="460" stroke="#333"/>
<text x="955.0" y="482" font-family="Arial" font-size="11" text-anchor="middle">3500</text>
<line x1="65" y1="455.0" x2="70" y2="455.0" stroke="#333"/>
<text x="60" y="459.0" font-family="Arial" font-size="11" text-anchor="end">-0.0962</text>
<line x1="70" y1="455.0" x2="955" y2="455.0" stroke="#e8e8e8"/>
<line x1="65" y1="352.5" x2="70" y2="352.5" stroke="#333"/>
<text x="60" y="356.5" font-family="Arial" font-size="11" text-anchor="end">0.198</text>
<line x1="70" y1="352.5" x2="955" y2="352.5" stroke="#e8e8e8"/>
<line x1="65" y1="250.0" x2="70" y2="250.0" stroke="#333"/>
<text x="60" y="254.0" font-family="Arial" font-size="11" text-anchor="end">0.493</text>
<line x1="70" y1="250.0" x2="955" y2="250.0" stroke="#e8e8e8"/>
<line x1="65" y1="147.5" x2="70" y2="147.5" stroke="#333"/>
<text x="60" y="151.5" font-family="Arial" font-size="11" text-anchor="end">0.787</text>
<line x1="70" y1="147.5" x2="955" y2="147.5" stroke="#e8e8e8"/>
<line x1="65" y1="45.0" x2="70" y2="45.0" stroke="#333"/>
<text x="60" y="49.0" font-family="Arial" font-size="11" text-anchor="end">1.08</text>
<line x1="70" y1="45.0" x2="955" y2="45.0" stroke="#e8e8e8"/>
<text x="512.5" y="510" font-family="Arial" font-size="13" text-anchor="middle">Day</text>
<text x="18" y="250.0" font-family="Arial" font-size="13" text-anchor="middle" transform="rotate(-90 18 250.0)">HI1</text>
<line x1="408.8" y1="45" x2="408.8" y2="455" stroke="#ff7f0e" stroke-dasharray="5,5"/>
<text x="413.8" y="61" font-family="Arial" font-size="12" fill="#ff7f0e">tau1=1340</text>
<line x1="702.1" y1="45" x2="702.1" y2="455" stroke="#d62728" stroke-dasharray="5,5"/>
<text x="707.1" y="61" font-family="Arial" font-size="12" fill="#d62728">tau2=2500</text>
<polyline fill="none" stroke="#1f77b4" stroke-width="2" points="70.00,421.51 75.06,421.00 80.11,420.06 85.17,419.29 90.23,418.74 95.29,417.69 100.34,416.66 105.40,415.77 110.46,414.89 115.51,414.05 120.57,413.11 125.63,412.30 130.69,411.44 135.74,410.20 140.80,409.23 145.86,408.21 150.91,406.78 155.97,405.69 161.03,404.24 166.09,403.07 171.14,401.93 176.20,400.60 181.26,399.59 186.31,398.23 191.37,396.92 196.43,395.91 201.49,394.69 206.54,393.19 211.60,391.73 216.66,390.50 221.71,389.09 226.77,387.81 231.83,386.53 236.89,385.43 241.94,384.28 247.00,382.89 252.06,381.74 257.11,380.39 262.17,378.90 267.23,377.73 272.29,376.40 277.34,375.13 282.40,373.55 287.46,371.81 292.51,370.35 297.57,369.26 302.63,367.78 307.69,366.40 312.74,365.02 317.80,363.33 322.86,361.67 327.91,359.96 332.97,358.76 338.03,357.36 343.09,355.57 348.14,353.96 353.20,352.49 358.26,350.89 363.31,349.55 368.37,348.26 373.43,346.76 378.49,344.89 383.54,343.26 388.60,341.59 393.66,340.10 398.71,338.49 403.77,336.80 408.83,334.77 413.89,333.00 418.94,331.20 424.00,330.04 429.06,328.20 434.11,326.60 439.17,324.96 444.23,323.11 449.29,321.68 454.34,320.18 459.40,318.34 464.46,316.60 469.51,314.50 474.57,312.95 479.63,311.23 484.69,309.26 489.74,307.36 494.80,305.28 499.86,303.32 504.91,301.51 509.97,299.66 515.03,297.82 520.09,295.84 525.14,293.89 530.20,292.23 535.26,290.27 540.31,288.22 545.37,286.29 550.43,284.32 555.49,282.67 560.54,280.56 565.60,278.53 570.66,276.53 575.71,274.29 580.77,272.21 585.83,269.84 590.89,267.74 595.94,265.53 601.00,263.15 606.06,261.24 611.11,259.00 616.17,256.71 621.23,254.16 626.29,252.04 631.34,250.01 636.40,247.77 641.46,245.69 646.51,243.29 651.57,240.60 656.63,238.14 661.69,235.90 666.74,233.66 671.80,231.42 676.86,229.03 681.91,226.30 686.97,223.82 692.03,221.57 697.09,219.21 702.14,216.97 707.20,214.58 712.26,212.24 717.31,209.66 722.37,207.12 727.43,204.97 732.49,202.08 737.54,199.56 742.60,196.99 747.66,194.16 752.71,191.49 757.77,188.81 762.83,185.84 767.89,183.49 772.94,180.61 778.00,178.01 783.06,174.99 788.11,172.33 793.17,169.83 798.23,166.75 803.29,163.94 808.34,161.23 813.40,158.08 818.46,155.31 823.51,152.45 828.57,149.62 833.63,146.61 838.69,143.12 843.74,140.13 848.80,137.26 853.86,134.13 858.91,131.21 863.97,127.94 869.03,124.70 874.09,121.71 879.14,118.30 884.20,115.37 889.26,112.12 894.31,108.52 899.37,105.42 904.43,102.13 909.49,99.06 914.54,96.01 919.60,92.54 924.66,89.32 929.71,85.97 934.77,82.58 939.83,80.56 944.89,78.23 949.94,75.80 955.00,73.28"/>
<line x1="78" y1="63" x2="102" y2="63" stroke="#1f77b4" stroke-width="2"/>
<text x="108" y="67" font-family="Arial" font-size="12">HI1</text>
<polyline fill="none" stroke="#d62728" stroke-width="2" stroke-dasharray="6,4" points="70.00,426.72 75.06,425.42 80.11,424.11 85.17,422.80 90.23,421.49 95.29,420.19 100.34,418.88 105.40,417.57 110.46,416.26 115.51,414.95 120.57,413.65 125.63,412.34 130.69,411.03 135.74,409.72 140.80,408.41 145.86,407.11 150.91,405.80 155.97,404.49 161.03,403.18 166.09,401.88 171.14,400.57 176.20,399.26 181.26,397.95 186.31,396.64 191.37,395.34 196.43,394.03 201.49,392.72 206.54,391.41 211.60,390.11 216.66,388.80 221.71,387.49 226.77,386.18 231.83,384.87 236.89,383.57 241.94,382.26 247.00,380.95 252.06,379.64 257.11,378.34 262.17,377.03 267.23,375.72 272.29,374.41 277.34,373.10 282.40,371.80 287.46,370.49 292.51,369.18 297.57,367.87 302.63,366.57 307.69,365.26 312.74,363.95 317.80,362.64 322.86,361.33 327.91,360.03 332.97,358.72 338.03,357.41 343.09,356.10 348.14,354.80 353.20,353.49 358.26,352.18 363.31,350.87 368.37,349.56 373.43,348.26 378.49,346.95 383.54,345.64 388.60,344.33 393.66,343.02 398.71,341.72 403.77,340.41 408.83,339.10 413.89,337.07 418.94,335.03 424.00,333.00 429.06,330.96 434.11,328.93 439.17,326.89 444.23,324.86 449.29,322.82 454.34,320.78 459.40,318.75 464.46,316.71 469.51,314.68 474.57,312.64 479.63,310.61 484.69,308.57 489.74,306.54 494.80,304.50 499.86,302.47 504.91,300.43 509.97,298.40 515.03,296.36 520.09,294.33 525.14,292.29 530.20,290.26 535.26,288.22 540.31,286.19 545.37,284.15 550.43,282.12 555.49,280.08 560.54,278.05 565.60,276.01 570.66,273.97 575.71,271.94 580.77,269.90 585.83,267.87 590.89,265.83 595.94,263.80 601.00,261.76 606.06,259.73 611.11,257.69 616.17,255.66 621.23,253.62 626.29,251.59 631.34,249.55 636.40,247.52 641.46,245.48 646.51,243.45 651.57,241.41 656.63,239.38 661.69,237.34 666.74,235.31 671.80,233.27 676.86,231.24 681.91,229.20 686.97,227.16 692.03,225.13 697.09,223.09 702.14,221.06 707.20,218.11 712.26,215.16 717.31,212.21 722.37,209.27 727.43,206.32 732.49,203.37 737.54,200.42 742.60,197.47 747.66,194.53 752.71,191.58 757.77,188.63 762.83,185.68 767.89,182.73 772.94,179.79 778.00,176.84 783.06,173.89 788.11,170.94 793.17,167.99 798.23,165.04 803.29,162.10 808.34,159.15 813.40,156.20 818.46,153.25 823.51,150.30 828.57,147.36 833.63,144.41 838.69,141.46 843.74,138.51 848.80,135.56 853.86,132.61 858.91,129.67 863.97,126.72 869.03,123.77 874.09,120.82 879.14,117.87 884.20,114.93 889.26,111.98 894.31,109.03 899.37,106.08 904.43,103.13 909.49,100.18 914.54,97.24 919.60,94.29 924.66,91.34 929.71,88.39 934.77,85.44 939.83,82.50 944.89,79.55 949.94,76.60 955.00,73.65"/>
<line x1="78" y1="81" x2="102" y2="81" stroke="#d62728" stroke-width="2" stroke-dasharray="6,4"/>
<text x="108" y="85" font-family="Arial" font-size="12">piecewise linear fit</text>
</svg>