<svg xmlns="http://www.w3.org/2000/svg" width="980" height="520" viewBox="0 0 980 520">
<rect width="100%" height="100%" fill="white"/>
<text x="70" y="26" font-family="Arial" font-size="18" font-weight="700">Attachment 2 equivalent life position</text>
<line x1="70" y1="455" x2="955" y2="455" stroke="#333"/>
<line x1="70" y1="45" x2="70" y2="455" stroke="#333"/>
<line x1="70.0" y1="455" x2="70.0" y2="460" stroke="#333"/>
<text x="70.0" y="482" font-family="Arial" font-size="11" text-anchor="middle">0</text>
<line x1="247.0" y1="455" x2="247.0" y2="460" stroke="#333"/>
<text x="247.0" y="482" font-family="Arial" font-size="11" text-anchor="middle">700</text>
<line x1="424.0" y1="455" x2="424.0" y2="460" stroke="#333"/>
<text x="424.0" y="482" font-family="Arial" font-size="11" text-anchor="middle">1400</text>
<line x1="601.0" y1="455" x2="601.0" y2="460" stroke="#333"/>
<text x="601.0" y="482" font-family="Arial" font-size="11" text-anchor="middle">2100</text>
<line x1="778.0" y1="455" x2="778.0" y2="460" stroke="#333"/>
<text x="778.0" y="482" font-family="Arial" font-size="11" text-anchor="middle">2800</text>
<line x1="955.0" y1="455" x2="955.0" y2="460" stroke="#333"/>
<text x="955.0" y="482" font-family="Arial" font-size="11" text-anchor="middle">3500</text>
<line x1="65" y1="455.0" x2="70" y2="455.0" stroke="#333"/>
<text x="60" y="459.0" font-family="Arial" font-size="11" text-anchor="end">-0.08</text>
<line x1="70" y1="455.0" x2="955" y2="455.0" stroke="#e8e8e8"/>
<line x1="65" y1="352.5" x2="70" y2="352.5" stroke="#333"/>
<text x="60" y="356.5" font-family="Arial" font-size="11" text-anchor="end">0.21</text>
<line x1="70" y1="352.5" x2="955" y2="352.5" stroke="#e8e8e8"/>
<line x1="65" y1="250.0" x2="70" y2="250.0" stroke="#333"/>
<text x="60" y="254.0" font-family="Arial" font-size="11" text-anchor="end">0.5</text>
<line x1="70" y1="250.0" x2="955" y2="250.0" stroke="#e8e8e8"/>
<line x1="65" y1="147.5" x2="70" y2="147.5" stroke="#333"/>
<text x="60" y="151.5" font-family="Arial" font-size="11" text-anchor="end">0.79</text>
<line x1="70" y1="147.5" x2="955" y2="147.5" stroke="#e8e8e8"/>
<line x1="65" y1="45.0" x2="70" y2="45.0" stroke="#333"/>
<text x="60" y="49.0" font-family="Arial" font-size="11" text-anchor="end">1.08</text>
<line x1="70" y1="45.0" x2="955" y2="45.0" stroke="#e8e8e8"/>
<text x="512.5" y="510" font-family="Arial" font-size="13" text-anchor="middle">Day</text>
<text x="18" y="250.0" font-family="Arial" font-size="13" text-anchor="middle" transform="rotate(-90 18 250.0)">Health index</text>
<line x1="702.0" y1="45" x2="702.0" y2="455" stroke="#9467bd" stroke-dasharray="5,5"/>
<text x="707.0" y="61" font-family="Arial" font-size="12" fill="#9467bd">inverse=2500</text>
<line x1="693.0" y1="45" x2="693.0" y2="455" stroke="#2ca02c" stroke-dasharray="5,5"/>
<text x="698.0" y="61" font-family="Arial" font-size="12" fill="#2ca02c">match=2464</text>
<line x1="408.8" y1="45" x2="408.8" y2="455" stroke="#ff7f0e" stroke-dasharray="5,5"/>
<text x="413.8" y="61" font-family="Arial" font-size="12" fill="#ff7f0e">tau1=1340</text>
<line x1="702.1" y1="45" x2="702.1" y2="455" stroke="#d62728" stroke-dasharray="5,5"/>
<text x="707.1" y="61" font-family="Arial" font-size="12" fill="#d62728">tau2=2500</text>
<polyline fill="none" stroke="#1f77b4" stroke-width="2" points="70.00,426.72 75.06,426.20 80.11,425.25 85.17,424.47 90.23,423.91 95.29,422.84 100.34,421.80 105.40,420.90 110.46,420.01 115.51,419.15 120.57,418.19 125.63,417.37 130.69,416.50 135.74,415.24 140.80,414.26 145.86,413.22 150.91,411.77 155.97,410.67 161.03,409.19 166.09,408.01 171.14,406.84 176.20,405.50 181.26,404.47 186.31,403.09 191.37,401.76 196.43,400.73 201.49,399.50 206.54,397.98 211.60,396.49 216.66,395.25 221.71,393.81 226.77,392.51 231.83,391.22 236.89,390.10 241.94,388.94 247.00,387.52 252.06,386.36 257.11,384.99 262.17,383.47 267.23,382.28 272.29,380.93 277.34,379.64 282.40,378.04 287.46,376.28 292.51,374.79 297.57,373.69 302.63,372.19 307.69,370.79 312.74,369.39 317.80,367.67 322.86,365.98 327.91,364.25 332.97,363.03 338.03,361.61 343.09,359.79 348.14,358.16 353.20,356.67 358.26,355.04 363.31,353.69 368.37,352.37 373.43,350.85 378.49,348.95 383.54,347.30 388.60,345.61 393.66,344.09 398.71,342.46 403.77,340.74 408.83,338.68 413.89,336.89 418.94,335.05 424.00,333.88 429.06,332.01 434.11,330.39 439.17,328.72 444.23,326.85 449.29,325.40 454.34,323.88 459.40,322.00 464.46,320.24 469.51,318.11 474.57,316.54 479.63,314.79 484.69,312.79 489.74,310.87 494.80,308.75 499.86,306.76 504.91,304.93 509.97,303.04 515.03,301.18 520.09,299.17 525.14,297.19 530.20,295.51 535.26,293.52 540.31,291.44 545.37,289.47 550.43,287.48 555.49,285.81 560.54,283.66 565.60,281.60 570.66,279.57 575.71,277.29 580.77,275.19 585.83,272.79 590.89,270.65 595.94,268.40 601.00,265.99 606.06,264.05 611.11,261.78 616.17,259.45 621.23,256.87 626.29,254.72 631.34,252.66 636.40,250.38 641.46,248.27 646.51,245.83 651.57,243.10 656.63,240.60 661.69,238.33 666.74,236.06 671.80,233.79 676.86,231.36 681.91,228.59 686.97,226.07 692.03,223.79 697.09,221.40 702.14,219.12 707.20,216.69 712.26,214.32 717.31,211.71 722.37,209.12 727.43,206.95 732.49,204.00 737.54,201.45 742.60,198.84 747.66,195.97 752.71,193.26 757.77,190.54 762.83,187.53 767.89,185.14 772.94,182.22 778.00,179.58 783.06,176.51 788.11,173.81 793.17,171.27 798.23,168.15 803.29,165.30 808.34,162.54 813.40,159.35 818.46,156.54 823.51,153.64 828.57,150.76 833.63,147.71 838.69,144.17 843.74,141.13 848.80,138.22 853.86,135.04 858.91,132.08 863.97,128.76 869.03,125.47 874.09,122.44 879.14,118.97 884.20,116.00 889.26,112.70 894.31,109.05 899.37,105.90 904.43,102.56 909.49,99.45 914.54,96.35 919.60,92.83 924.66,89.56 929.71,86.16 934.77,82.72 939.83,80.67 944.89,78.31 949.94,75.84 955.00,73.28"/>
<line x1="78" y1="63" x2="102" y2="63" stroke="#1f77b4" stroke-width="2"/>
<text x="108" y="67" font-family="Arial" font-size="12">Attachment 1 HI1</text>
<polyline fill="none" stroke="#2ca02c" stroke-width="2" points="70.00,420.19 70.25,424.85 70.51,418.21 70.76,406.84 71.01,423.65 71.26,423.74 71.52,406.08 71.77,416.62 72.02,420.57 72.28,419.55 72.53,420.74 72.78,420.67 73.03,423.54 73.29,401.71 73.54,404.09 73.79,419.38 74.05,413.42 74.30,422.62 74.55,414.89 74.80,408.28 75.06,407.49 75.31,423.81 75.56,425.80 75.82,408.12 76.07,419.65 76.32,425.22 76.57,411.64 76.83,421.78 77.08,418.83 77.33,422.84 77.59,418.83 77.84,402.50 78.09,426.51 78.34,412.86 78.60,415.98 78.85,410.74 79.10,424.00 79.36,401.09 79.61,409.34 79.86,424.09 80.11,417.14 80.37,424.42 80.62,425.18 80.87,422.81 81.13,407.36 81.38,417.24 81.63,420.75 81.88,412.84 82.14,422.25 82.39,403.65 82.64,422.42 82.90,421.62 83.15,417.94 83.40,418.76 83.65,413.26 83.91,414.45 84.16,415.65 84.41,422.52 84.67,422.09 84.92,413.59 85.17,420.10 85.42,423.84 85.68,411.83 85.93,410.55 86.18,415.57 86.44,408.48 86.69,425.15 86.94,412.93 87.19,421.09 87.45,417.43 87.70,421.01 87.95,405.73 88.21,425.26 88.46,405.18 88.71,391.29 88.96,414.84 89.22,424.28 89.47,421.42 89.72,424.03 89.98,399.24 90.23,422.30 90.48,420.42 90.73,405.73 90.99,418.14 91.24,414.25 91.49,418.20 91.75,412.89 92.00,420.46 92.25,417.72 92.50,417.87 92.76,423.30 93.01,411.75 93.26,415.25 93.52,420.00 93.77,419.13 94.02,405.03 94.27,420.23 94.53,420.61 94.78,423.96 95.03,420.88 95.29,405.55 95.54,418.47 95.79,419.53 96.04,413.30 96.30,421.71 96.55,418.47 96.80,399.12 97.06,421.41 97.31,420.28 97.56,422.64 97.81,398.38 98.07,423.03 98.32,422.57 98.57,391.10 98.83,420.63 99.08,419.09 99.33,422.57 99.58,407.75 99.84,408.04 100.09,413.13 100.34,412.54 100.60,410.99 100.85,404.51 101.10,404.47 101.35,415.03 101.61,394.00 101.86,409.42 102.11,414.97 102.37,421.09 102.62,415.65 102.87,401.95 103.12,421.20 103.38,408.19 103.63,415.87 103.88,409.92 104.14,401.53 104.39,411.51 104.64,417.56 104.89,411.01 105.15,405.48 105.40,418.53 105.65,404.33 105.91,400.38 106.16,418.98 106.41,417.97 106.66,411.13 106.92,405.11 107.17,403.91 107.42,414.19 107.68,416.98 107.93,417.54 108.18,416.34 108.43,412.01 108.69,417.80 108.94,416.84 109.19,411.31 109.45,396.26 109.70,414.43 109.95,404.92 110.20,411.82 110.46,407.70 110.71,409.92 110.96,405.06 111.22,409.37 111.47,407.49 111.72,414.55 111.97,409.28 112.23,395.10 112.48,416.63 112.73,409.96 112.99,408.11 113.24,409.06 113.49,418.68 113.74,415.01 114.00,415.95 114.25,408.70 114.50,419.23 114.76,400.29 115.01,415.70 115.26,383.70 115.51,410.80 115.77,407.65 116.02,404.83 116.27,412.38 116.53,415.70 116.78,409.25 117.03,412.25 117.28,417.61 117.54,407.48 117.79,398.59 118.04,412.40 118.30,407.06 118.55,415.31 118.80,401.97 119.05,415.86 119.31,412.99 119.56,406.45 119.81,415.96 120.07,417.25 120.32,403.03 120.57,413.12 120.82,410.39 121.08,403.57 121.33,403.82 121.58,399.52 121.84,405.19 122.09,410.77 122.34,410.67 122.59,410.64 122.85,381.98 123.10,409.88 123.35,402.46 123.61,404.79 123.86,408.57 124.11,412.92 124.36,407.14 124.62,406.82 124.87,413.84 125.12,410.48 125.38,415.76 125.63,386.41 125.88,392.14 126.13,407.58 126.39,395.27 126.64,410.12 126.89,402.09 127.15,415.39 127.40,402.13 127.65,406.65 127.90,407.08 128.16,406.37 128.41,412.97 128.66,415.28 128.92,407.40 129.17,387.93 129.42,407.45 129.67,389.25 129.93,413.14 130.18,407.04 130.43,404.34 130.69,405.23 130.94,414.06 131.19,408.98 131.44,404.18 131.70,399.78 131.95,410.98 132.20,409.15 132.46,406.65 132.71,392.05 132.96,409.80 133.21,398.48 133.47,402.98 133.72,387.11 133.97,401.31 134.23,394.90 134.48,408.29 134.73,398.10 134.98,405.26 135.24,408.70 135.49,404.20 135.74,402.14 136.00,413.52 136.25,378.88 136.50,400.82 136.75,410.71 137.01,397.81 137.26,392.62 137.51,395.17 137.77,408.00 138.02,411.88 138.27,394.85 138.52,394.74 138.78,398.27 139.03,413.23 139.28,400.43 139.54,407.20 139.79,410.52 140.04,405.25 140.29,412.15 140.55,407.94 140.80,411.44 141.05,404.11 141.31,391.96 141.56,396.56 141.81,384.82 142.06,387.07 142.32,410.51 142.57,404.70 142.82,408.69 143.08,404.15 143.33,409.50 143.58,405.63 143.83,404.44 144.09,400.71 144.34,407.19 144.59,402.65 144.85,399.83 145.10,407.64 145.35,400.82 145.60,403.18 145.86,400.55 146.11,403.98 146.36,401.40 146.62,403.18 146.87,410.78 147.12,409.54 147.37,394.31 147.63,403.23 147.88,403.66 148.13,408.15 148.39,407.91 148.64,396.32 148.89,399.87 149.14,400.04 149.40,393.42 149.65,410.25 149.90,401.53 150.16,406.40 150.41,406.07 150.66,408.58 150.91,408.89 151.17,402.41 151.42,399.26 151.67,382.65 151.93,396.83 152.18,394.01 152.43,394.62 152.68,399.35 152.94,401.58 153.19,401.41 153.44,409.54 153.70,397.78 153.95,408.37 154.20,400.56 154.45,396.52 154.71,407.26 154.96,398.35 155.21,404.83 155.47,403.67 155.72,401.58 155.97,398.22 156.22,405.66 156.48,405.60 156.73,402.00 156.98,402.37 157.24,405.46 157.49,389.47 157.74,390.06 157.99,398.87 158.25,405.35 158.50,404.03 158.75,388.81 159.01,396.84 159.26,405.92 159.51,407.86 159.76,394.83 160.02,407.60 160.27,404.05 160.52,403.39 160.78,396.86 161.03,400.76 161.28,387.46 161.53,406.09 161.79,402.03 162.04,398.18 162.29,401.99 162.55,404.24 162.80,406.91 163.05,405.71 163.30,396.81 163.56,406.45 163.81,400.20 164.06,387.74 164.32,394.07 164.57,378.33 164.82,396.37 165.07,394.93 165.33,403.84 165.58,377.60 165.83,395.55 166.09,394.94 166.34,398.15 166.59,378.19 166.84,398.99 167.10,395.93 167.35,403.72 167.60,401.17 167.86,381.03 168.11,393.04 168.36,397.78 168.61,393.50 168.87,398.71 169.12,387.75 169.37,381.02 169.63,389.48 169.88,398.65 170.13,382.38 170.38,386.91 170.64,403.04 170.89,388.35 171.14,383.60 171.40,396.62 171.65,404.36 171.90,403.87 172.15,398.44 172.41,396.16 172.66,390.19 172.91,402.24 173.17,402.49 173.42,397.46 173.67,394.79 173.92,389.26 174.18,383.79 174.43,386.98 174.68,399.40 174.94,393.83 175.19,383.28 175.44,401.94 175.69,388.09 175.95,402.67 176.20,376.47 176.45,380.32 176.71,400.02 176.96,390.41 177.21,394.71 177.46,385.25 177.72,390.44 177.97,394.00 178.22,389.13 178.48,379.85 178.73,387.38 178.98,375.94 179.23,399.02 179.49,393.06 179.74,382.75 179.99,401.37 180.25,381.08 180.50,384.12 180.75,379.92 181.00,401.40 181.26,397.03 181.51,401.57 181.76,374.97 182.02,400.58 182.27,384.58 182.52,392.84 182.77,396.72 183.03,389.27 183.28,394.60 183.53,387.44 183.79,400.39 184.04,388.67 184.29,388.37 184.54,394.60 184.80,394.20 185.05,390.70 185.30,399.77 185.56,387.54 185.81,393.76 186.06,385.12 186.31,375.00 186.57,400.08 186.82,391.23 187.07,397.56 187.33,398.79 187.58,397.37 187.83,392.17 188.08,390.26 188.34,393.11 188.59,392.46 188.84,396.39 189.10,369.72 189.35,379.91 189.60,381.74 189.85,377.99 190.11,396.25 190.36,391.89 190.61,395.35 190.87,363.91 191.12,384.53 191.37,397.33 191.62,386.55 191.88,377.94 192.13,396.26 192.38,388.95 192.64,380.11 192.89,390.23 193.14,384.39 193.39,376.43 193.65,386.86 193.90,398.12 194.15,378.91 194.41,397.23 194.66,386.92 194.91,378.10 195.16,391.06 195.42,384.45 195.67,395.43 195.92,386.47 196.18,379.78 196.43,385.55 196.68,372.67 196.93,379.25 197.19,390.10 197.44,388.97 197.69,390.99 197.95,389.55 198.20,385.99 198.45,396.48 198.70,386.42 198.96,393.67 199.21,396.44 199.46,393.95 199.72,385.03 199.97,389.36 200.22,386.80 200.47,390.02 200.73,383.74 200.98,395.04 201.23,386.62 201.49,374.47 201.74,389.12 201.99,387.55 202.24,388.64 202.50,386.05 202.75,372.36 203.00,374.68 203.26,395.26 203.51,392.31 203.76,383.78 204.01,387.22 204.27,373.74 204.52,394.52 204.77,379.45 205.03,386.62 205.28,394.43 205.53,383.86 205.78,389.91 206.04,381.80 206.29,387.33 206.54,383.79 206.80,379.89 207.05,387.69 207.30,375.62 207.55,361.99 207.81,383.92 208.06,386.79 208.31,391.58 208.57,389.27 208.82,386.15 209.07,392.72 209.32,391.82 209.58,378.51 209.83,390.22 210.08,389.10 210.34,388.06 210.59,386.86 210.84,387.48 211.09,387.94 211.35,387.45 211.60,389.14 211.85,365.82 212.11,381.31 212.36,388.46 212.61,376.88 212.86,387.05 213.12,365.78 213.37,379.16 213.62,367.70 213.88,387.47 214.13,391.71 214.38,370.04 214.63,387.50 214.89,388.93 215.14,380.86 215.39,362.63 215.65,388.31 215.90,381.35 216.15,371.97 216.40,376.20 216.66,386.65 216.91,385.54 217.16,382.61 217.42,361.14 217.67,388.41 217.92,387.46 218.17,384.56 218.43,379.44 218.68,379.49 218.93,379.19 219.19,389.38 219.44,383.88 219.69,383.89 219.94,385.54 220.20,376.21 220.45,383.07 220.70,386.16 220.96,376.76 221.21,383.73 221.46,384.46 221.71,379.47 221.97,377.14 222.22,377.76 222.47,371.29 222.73,383.60 222.98,364.43 223.23,378.67 223.48,372.43 223.74,365.41 223.99,369.14 224.24,380.01 224.50,387.84 224.75,384.78 225.00,373.74 225.25,356.39 225.51,386.69 225.76,386.82 226.01,378.68 226.27,381.81 226.52,385.12 226.77,377.57 227.02,381.66 227.28,363.06 227.53,370.02 227.78,366.56 228.04,380.72 228.29,374.45 228.54,385.51 228.79,386.35 229.05,372.66 229.30,364.92 229.55,366.94 229.81,384.77 230.06,381.16 230.31,373.48 230.56,365.11 230.82,375.85 231.07,385.64 231.32,369.57 231.58,369.42 231.83,381.81 232.08,364.49 232.33,382.77 232.59,366.39 232.84,382.84 233.09,382.55 233.35,350.65 233.60,385.20 233.85,382.68 234.10,376.62 234.36,361.30 234.61,370.68 234.86,381.94 235.12,370.96 235.37,351.71 235.62,384.49 235.87,385.03 236.13,384.84 236.38,382.49 236.63,383.04 236.89,377.29 237.14,377.47 237.39,384.35 237.64,377.54 237.90,375.15 238.15,383.03 238.40,380.83 238.66,364.53 238.91,349.34 239.16,369.67 239.41,367.59 239.67,356.56 239.92,379.28 240.17,378.74 240.43,365.10 240.68,373.33 240.93,368.86 241.18,360.27 241.44,370.87 241.69,366.47 241.94,373.58 242.20,368.10 242.45,376.09 242.70,376.33 242.95,366.73 243.21,373.37 243.46,379.36 243.71,377.48 243.97,373.09 244.22,376.44 244.47,377.40 244.72,366.96 244.98,367.98 245.23,373.97 245.48,374.03 245.74,377.64 245.99,377.44 246.24,365.20 246.49,369.45 246.75,378.92 247.00,374.45 247.25,367.59 247.51,371.97 247.76,362.60 248.01,360.67 248.26,372.84 248.52,364.00 248.77,357.54 249.02,353.31 249.28,358.18 249.53,377.64 249.78,379.16 250.03,373.17 250.29,374.96 250.54,379.50 250.79,365.47 251.05,378.31 251.30,377.76 251.55,374.89 251.80,378.94 252.06,375.66 252.31,357.24 252.56,361.95 252.82,369.73 253.07,377.06 253.32,376.77 253.57,378.78 253.83,374.45 254.08,371.84 254.33,368.64 254.59,376.18 254.84,365.81 255.09,373.19 255.34,356.07 255.60,364.79 255.85,371.89 256.10,374.78 256.36,364.97 256.61,356.15 256.86,364.46 257.11,353.52 257.37,360.80 257.62,369.33 257.87,376.93 258.13,370.48 258.38,367.69 258.63,374.69 258.88,367.21 259.14,368.90 259.39,358.47 259.64,364.73 259.90,359.11 260.15,363.84 260.40,362.69 260.65,363.87 260.91,341.77 261.16,369.63 261.41,373.63 261.67,364.64 261.92,366.68 262.17,368.16 262.42,374.02 262.68,342.05 262.93,374.17 263.18,360.25 263.44,366.06 263.69,374.61 263.94,351.90 264.19,366.70 264.45,351.20 264.70,365.52 264.95,367.33 265.21,366.32 265.46,361.83 265.71,366.20 265.96,353.72 266.22,364.68 266.47,370.94 266.72,373.03 266.98,365.71 267.23,371.50 267.48,356.26 267.73,368.51 267.99,365.31 268.24,365.92 268.49,359.02 268.75,362.31 269.00,366.99 269.25,371.98 269.50,351.03 269.76,367.16 270.01,370.00 270.26,368.90 270.52,355.72 270.77,358.21 271.02,358.54 271.27,371.59 271.53,363.14 271.78,371.66 272.03,371.60 272.29,359.71 272.54,365.06 272.79,370.46 273.04,365.64 273.30,366.01 273.55,367.51 273.80,368.47 274.06,365.02 274.31,354.78 274.56,359.46 274.81,368.48 275.07,365.21 275.32,351.83 275.57,368.14 275.83,357.17 276.08,351.07 276.33,366.93 276.58,358.67 276.84,369.13 277.09,356.19 277.34,363.23 277.60,351.54 277.85,339.93 278.10,365.11 278.35,363.91 278.61,350.51 278.86,348.90 279.11,362.50 279.37,363.85 279.62,365.48 279.87,351.59 280.12,357.06 280.38,355.85 280.63,358.75 280.88,368.24 281.14,365.57 281.39,348.21 281.64,355.32 281.89,355.47 282.15,365.41 282.40,367.35 282.65,359.11 282.91,353.18 283.16,362.91 283.41,365.67 283.66,361.21 283.92,363.77 284.17,335.29 284.42,359.09 284.68,360.36 284.93,359.00 285.18,359.82 285.43,358.72 285.69,351.38 285.94,348.22 286.19,359.13 286.45,355.70 286.70,360.42 286.95,359.14 287.20,358.00 287.46,363.51 287.71,346.07 287.96,345.55 288.22,342.19 288.47,357.44 288.72,360.35 288.97,361.52 289.23,360.89 289.48,356.39 289.73,338.77 289.99,362.59 290.24,354.41 290.49,346.74 290.74,354.98 291.00,363.95 291.25,340.93 291.50,357.59 291.76,361.20 292.01,363.95 292.26,348.40 292.51,330.90 292.77,356.75 293.02,357.19 293.27,349.87 293.53,354.46 293.78,339.12 294.03,355.58 294.28,358.29 294.54,355.23 294.79,348.33 295.04,352.07 295.30,356.02 295.55,348.62 295.80,347.20 296.05,344.27 296.31,353.78 296.56,360.07 296.81,360.15 297.07,346.22 297.32,351.30 297.57,357.10 297.82,356.63 298.08,361.30 298.33,344.81 298.58,359.00 298.84,360.81 299.09,343.62 299.34,351.37 299.59,352.68 299.85,332.75 300.10,356.91 300.35,358.04 300.61,357.52 300.86,340.02 301.11,359.33 301.36,356.89 301.62,352.58 301.87,358.01 302.12,354.43 302.38,357.70 302.63,346.15 302.88,346.67 303.13,358.32 303.39,350.71 303.64,344.15 303.89,339.87 304.15,352.40 304.40,354.63 304.65,338.93 304.90,358.44 305.16,351.97 305.41,334.50 305.66,340.05 305.92,330.00 306.17,353.00 306.42,351.95 306.67,345.21 306.93,349.01 307.18,355.10 307.43,350.75 307.69,341.43 307.94,346.61 308.19,349.38 308.44,356.63 308.70,333.64 308.95,343.71 309.20,337.78 309.46,348.58 309.71,357.07 309.96,354.34 310.21,354.11 310.47,352.58 310.72,340.74 310.97,338.07 311.23,355.81 311.48,342.26 311.73,352.17 311.98,350.53 312.24,348.93 312.49,350.46 312.74,347.86 313.00,338.78 313.25,353.58 313.50,346.73 313.75,354.81 314.01,336.96 314.26,346.77 314.51,332.00 314.77,354.94 315.02,336.56 315.27,353.47 315.52,346.08 315.78,343.84 316.03,346.30 316.28,348.81 316.54,329.97 316.79,348.62 317.04,322.65 317.29,333.48 317.55,344.12 317.80,343.64 318.05,348.23 318.31,341.06 318.56,352.89 318.81,353.28 319.06,338.14 319.32,333.49 319.57,341.74 319.82,350.24 320.08,352.63 320.33,350.06 320.58,326.15 320.83,349.46 321.09,343.60 321.34,339.23 321.59,348.61 321.85,328.76 322.10,343.66 322.35,344.62 322.60,344.45 322.86,333.51 323.11,339.66 323.36,350.78 323.62,343.00 323.87,342.22 324.12,346.14 324.37,339.47 324.63,342.65 324.88,337.06 325.13,343.68 325.39,333.30 325.64,347.94 325.89,323.14 326.14,341.12 326.40,327.46 326.65,347.43 326.90,341.22 327.16,343.48 327.41,345.48 327.66,344.01 327.91,342.61 328.17,341.85 328.42,348.86 328.67,320.96 328.93,326.24 329.18,343.12 329.43,348.08 329.68,347.01 329.94,340.36 330.19,334.97 330.44,344.82 330.70,326.35 330.95,342.84 331.20,339.52 331.45,341.58 331.71,327.28 331.96,331.81 332.21,328.57 332.47,344.70 332.72,333.83 332.97,325.38 333.22,341.37 333.48,333.06 333.73,346.63 333.98,344.82 334.24,335.50 334.49,338.40 334.74,326.24 334.99,327.35 335.25,328.53 335.50,338.20 335.75,341.14 336.01,339.74 336.26,342.69 336.51,338.83 336.76,337.10 337.02,345.44 337.27,330.28 337.52,338.37 337.78,340.65 338.03,335.25 338.28,309.84 338.53,329.93 338.79,322.20 339.04,340.05 339.29,330.09 339.55,327.69 339.80,329.40 340.05,338.16 340.30,339.62 340.56,343.43 340.81,337.96 341.06,342.86 341.32,327.07 341.57,330.60 341.82,337.23 342.07,323.19 342.33,337.80 342.58,323.62 342.83,332.02 343.09,338.50 343.34,338.33 343.59,338.66 343.84,315.54 344.10,337.52 344.35,336.77 344.60,328.76 344.86,338.98 345.11,338.63 345.36,339.27 345.61,340.87 345.87,341.18 346.12,331.92 346.37,340.75 346.63,331.58 346.88,339.95 347.13,339.93 347.38,314.57 347.64,328.71 347.89,335.97 348.14,327.40 348.40,304.97 348.65,312.82 348.90,338.22 349.15,325.40 349.41,326.10 349.66,331.61 349.91,325.71 350.17,331.24 350.42,314.24 350.67,336.68 350.92,336.16 351.18,327.43 351.43,332.26 351.68,336.68 351.94,333.85 352.19,307.04 352.44,337.72 352.69,335.73 352.95,324.56 353.20,323.71 353.45,322.57 353.71,329.56 353.96,322.90 354.21,316.37 354.46,322.64 354.72,333.60 354.97,327.47 355.22,336.36 355.48,332.69 355.73,332.88 355.98,331.33 356.23,315.54 356.49,330.80 356.74,333.40 356.99,323.75 357.25,320.69 357.50,319.99 357.75,328.08 358.00,326.68 358.26,331.79 358.51,317.61 358.76,333.53 359.02,333.74 359.27,333.04 359.52,335.01 359.77,320.80 360.03,316.26 360.28,314.12 360.53,323.77 360.79,321.80 361.04,306.56 361.29,326.15 361.54,317.19 361.80,312.86 362.05,321.02 362.30,325.09 362.56,304.59 362.81,321.04 363.06,329.56 363.31,300.92 363.57,303.70 363.82,315.31 364.07,311.88 364.33,320.08 364.58,301.38 364.83,315.11 365.08,325.71 365.34,325.14 365.59,321.50 365.84,322.62 366.10,328.81 366.35,331.10 366.60,331.39 366.85,322.34 367.11,328.33 367.36,309.83 367.61,330.52 367.87,318.69 368.12,317.16 368.37,329.08 368.62,313.03 368.88,319.17 369.13,310.47 369.38,317.91 369.64,318.39 369.89,317.85 370.14,327.57 370.39,323.34 370.65,317.69 370.90,328.83 371.15,312.59 371.41,322.05 371.66,325.57 371.91,308.74 372.16,323.73 372.42,329.14 372.67,322.18 372.92,326.23 373.18,311.13 373.43,327.34 373.68,323.32 373.93,327.22 374.19,321.41 374.44,327.79 374.69,327.71 374.95,318.85 375.20,319.22 375.45,309.47 375.70,304.76 375.96,311.19 376.21,318.32 376.46,317.82 376.72,315.47 376.97,323.24 377.22,310.53 377.47,318.03 377.73,322.95 377.98,315.56 378.23,298.47 378.49,310.82 378.74,322.11 378.99,317.70 379.24,320.46 379.50,323.32 379.75,323.88 380.00,324.80 380.26,323.33 380.51,312.57 380.76,296.24 381.01,317.73 381.27,307.02 381.52,323.56 381.77,290.89 382.03,313.93 382.28,303.04 382.53,302.39 382.78,316.95 383.04,316.63 383.29,302.50 383.54,318.72 383.80,320.85 384.05,315.87 384.30,310.03 384.55,314.66 384.81,307.03 385.06,322.44 385.31,312.64 385.57,319.50 385.82,302.12 386.07,317.95 386.32,311.24 386.58,295.94 386.83,316.97 387.08,305.75 387.34,305.96 387.59,299.83 387.84,316.02 388.09,312.24 388.35,320.71 388.60,313.96 388.85,320.11 389.11,313.88 389.36,308.71 389.61,318.56 389.86,302.16 390.12,319.05 390.37,308.52 390.62,310.67 390.88,304.02 391.13,305.74 391.38,311.94 391.63,305.47 391.89,315.48 392.14,303.64 392.39,317.40 392.65,288.79 392.90,313.83 393.15,316.26 393.40,314.73 393.66,316.76 393.91,316.38 394.16,308.95 394.42,305.48 394.67,307.55 394.92,300.47 395.17,293.63 395.43,310.99 395.68,303.07 395.93,289.19 396.19,312.09 396.44,284.50 396.69,316.89 396.94,305.83 397.20,315.66 397.45,315.36 397.70,304.52 397.96,312.62 398.21,312.80 398.46,311.82 398.71,307.24 398.97,302.74 399.22,313.32 399.47,305.58 399.73,308.36 399.98,303.51 400.23,314.73 400.48,314.91 400.74,300.70 400.99,308.60 401.24,314.29 401.50,303.79 401.75,296.13 402.00,306.96 402.25,313.88 402.51,296.81 402.76,299.96 403.01,309.69 403.27,305.66 403.52,311.02 403.77,312.53 404.02,306.27 404.28,312.08 404.53,306.59 404.78,311.91 405.04,286.99 405.29,300.40 405.54,310.72 405.79,296.53 406.05,304.52 406.30,292.17 406.55,296.11 406.81,309.09 407.06,292.20 407.31,309.71 407.56,307.09 407.82,303.29 408.07,307.23 408.32,305.93 408.58,308.84 408.83,308.76 409.08,310.58 409.33,304.82 409.59,295.01 409.84,297.99 410.09,290.92 410.35,276.65 410.60,297.63 410.85,291.91 411.10,306.70 411.36,294.06 411.61,285.71 411.86,301.98 412.12,298.96 412.37,301.29 412.62,274.77 412.87,301.29 413.13,303.17 413.38,288.72 413.63,305.60 413.89,307.61 414.14,300.12 414.39,306.07 414.64,294.65 414.90,291.73 415.15,305.09 415.40,306.72 415.66,294.76 415.91,301.06 416.16,295.14 416.41,304.28 416.67,284.02 416.92,288.29 417.17,284.97 417.43,286.70 417.68,303.09 417.93,296.99 418.18,291.81 418.44,297.48 418.69,281.21 418.94,296.14 419.20,298.35 419.45,276.45 419.70,296.51 419.95,294.61 420.21,300.22 420.46,286.84 420.71,283.33 420.97,303.17 421.22,293.54 421.47,297.24 421.72,294.19 421.98,276.52 422.23,301.00 422.48,297.83 422.74,300.16 422.99,284.82 423.24,289.54 423.49,286.36 423.75,293.46 424.00,288.12 424.25,294.62 424.51,285.92 424.76,291.89 425.01,288.20 425.26,291.20 425.52,282.30 425.77,281.00 426.02,296.34 426.28,297.04 426.53,282.97 426.78,292.89 427.03,293.96 427.29,271.62 427.54,291.34 427.79,287.55 428.05,298.82 428.30,295.85 428.55,279.30 428.80,292.50 429.06,291.94 429.31,284.83 429.56,293.81 429.82,287.49 430.07,284.61 430.32,272.47 430.57,271.17 430.83,283.33 431.08,294.63 431.33,293.90 431.59,293.31 431.84,286.58 432.09,285.76 432.34,289.37 432.60,294.71 432.85,292.96 433.10,293.31 433.36,275.28 433.61,289.88 433.86,286.56 434.11,287.30 434.37,280.47 434.62,293.37 434.87,278.62 435.13,290.29 435.38,286.79 435.63,288.19 435.88,287.42 436.14,278.76 436.39,294.49 436.64,290.70 436.90,272.24 437.15,291.16 437.40,260.25 437.65,286.68 437.91,270.87 438.16,283.79 438.41,288.62 438.67,276.68 438.92,284.47 439.17,291.45 439.42,276.88 439.68,290.20 439.93,281.61 440.18,284.87 440.44,284.59 440.69,270.30 440.94,286.76 441.19,276.23 441.45,285.77 441.70,275.79 441.95,283.41 442.21,289.56 442.46,290.91 442.71,280.78 442.96,282.39 443.22,289.00 443.47,284.91 443.72,278.73 443.98,284.48 444.23,280.52 444.48,285.07 444.73,267.20 444.99,284.43 445.24,286.79 445.49,277.34 445.75,270.79 446.00,266.08 446.25,269.09 446.50,272.38 446.76,281.51 447.01,255.02 447.26,281.01 447.52,285.75 447.77,267.92 448.02,261.66 448.27,260.66 448.53,271.79 448.78,273.95 449.03,279.50 449.29,276.91 449.54,279.86 449.79,276.09 450.04,286.66 450.30,284.30 450.55,280.56 450.80,277.10 451.06,273.70 451.31,284.88 451.56,266.65 451.81,270.89 452.07,283.12 452.32,276.03 452.57,260.89 452.83,284.10 453.08,283.43 453.33,264.98 453.58,276.39 453.84,271.07 454.09,259.94 454.34,268.18 454.60,276.38 454.85,280.92 455.10,271.11 455.35,278.62 455.61,269.27 455.86,258.72 456.11,263.09 456.37,276.76 456.62,268.27 456.87,281.04 457.12,259.63 457.38,278.41 457.63,280.51 457.88,276.05 458.14,261.16 458.39,275.19 458.64,274.83 458.89,266.38 459.15,246.16 459.40,281.08 459.65,258.01 459.91,259.34 460.16,274.96 460.41,272.73 460.66,274.45 460.92,267.31 461.17,276.38 461.42,270.09 461.68,263.91 461.93,278.54 462.18,277.04 462.43,268.06 462.69,268.66 462.94,276.26 463.19,274.18 463.45,266.90 463.70,268.35 463.95,259.13 464.20,275.02 464.46,278.08 464.71,268.48 464.96,246.30 465.22,266.41 465.47,268.16 465.72,273.98 465.97,276.55 466.23,270.51 466.48,256.53 466.73,269.87 466.99,266.17 467.24,260.01 467.49,272.54 467.74,258.57 468.00,269.96 468.25,275.47 468.50,254.66 468.76,260.31 469.01,265.76 469.26,264.74 469.51,272.52 469.77,260.04 470.02,261.48 470.27,273.84 470.53,268.83 470.78,265.22 471.03,271.82 471.28,269.05 471.54,262.92 471.79,272.41 472.04,259.35 472.30,237.96 472.55,267.40 472.80,261.06 473.05,241.81 473.31,259.37 473.56,264.20 473.81,245.29 474.07,271.70 474.32,262.24 474.57,269.15 474.82,253.58 475.08,262.79 475.33,260.72 475.58,264.53 475.84,258.26 476.09,269.03 476.34,249.12 476.59,266.02 476.85,266.85 477.10,266.08 477.35,249.27 477.61,258.03 477.86,268.37 478.11,266.84 478.36,233.71 478.62,264.96 478.87,258.86 479.12,262.96 479.38,253.31 479.63,266.64 479.88,249.09 480.13,255.58 480.39,258.77 480.64,242.74 480.89,252.91 481.15,261.00 481.40,249.97 481.65,265.70 481.90,255.30 482.16,259.92 482.41,255.02 482.66,257.61 482.92,252.32 483.17,261.24 483.42,260.13 483.67,252.65 483.93,259.57 484.18,237.97 484.43,250.70 484.69,264.17 484.94,245.97 485.19,263.20 485.44,258.15 485.70,250.04 485.95,258.01 486.20,261.11 486.46,250.42 486.71,247.54 486.96,229.19 487.21,255.31 487.47,258.39 487.72,259.97 487.97,257.67 488.23,257.78 488.48,258.07 488.73,259.72 488.98,244.46 489.24,248.39 489.49,246.55 489.74,244.08 490.00,259.62 490.25,233.10 490.50,252.76 490.75,243.65 491.01,260.10 491.26,247.05 491.51,253.43 491.77,248.84 492.02,252.46 492.27,256.41 492.52,254.45 492.78,253.99 493.03,246.93 493.28,237.55 493.54,254.28 493.79,242.54 494.04,238.21 494.29,244.93 494.55,252.19 494.80,252.50 495.05,257.32 495.31,245.62 495.56,253.02 495.81,241.69 496.06,241.41 496.32,250.66 496.57,253.95 496.82,252.81 497.08,252.92 497.33,248.54 497.58,249.87 497.83,244.44 498.09,237.96 498.34,253.66 498.59,229.79 498.85,242.01 499.10,245.87 499.35,247.84 499.60,252.05 499.86,249.61 500.11,247.65 500.36,245.51 500.62,239.13 500.87,248.07 501.12,250.25 501.37,244.43 501.63,228.32 501.88,251.26 502.13,240.10 502.39,238.13 502.64,250.84 502.89,223.82 503.14,240.88 503.40,244.82 503.65,250.46 503.90,247.12 504.16,248.75 504.41,241.89 504.66,245.20 504.91,244.09 505.17,247.16 505.42,240.85 505.67,242.25 505.93,237.89 506.18,235.64 506.43,242.72 506.68,238.96 506.94,244.46 507.19,225.01 507.44,245.93 507.70,244.07 507.95,248.28 508.20,244.36 508.45,237.77 508.71,227.00 508.96,234.07 509.21,233.71 509.47,235.15 509.72,225.01 509.97,245.79 510.22,244.73 510.48,245.84 510.73,231.41 510.98,234.22 511.24,243.14 511.49,233.39 511.74,239.32 511.99,243.29 512.25,232.57 512.50,210.11 512.75,236.45 513.01,236.60 513.26,220.99 513.51,238.10 513.76,226.72 514.02,242.75 514.27,231.92 514.52,223.15 514.78,226.77 515.03,222.50 515.28,233.99 515.53,242.53 515.79,222.29 516.04,239.85 516.29,231.95 516.55,214.42 516.80,240.21 517.05,240.59 517.30,234.95 517.56,241.37 517.81,219.60 518.06,233.64 518.32,239.02 518.57,231.87 518.82,224.15 519.07,233.30 519.33,240.84 519.58,235.61 519.83,232.18 520.09,222.72 520.34,239.78 520.59,221.14 520.84,230.76 521.10,239.51 521.35,221.36 521.60,236.42 521.86,230.51 522.11,236.17 522.36,222.67 522.61,215.73 522.87,238.66 523.12,238.02 523.37,231.36 523.63,237.19 523.88,230.04 524.13,235.52 524.38,229.22 524.64,225.50 524.89,239.25 525.14,214.63"/>
<line x1="78" y1="81" x2="102" y2="81" stroke="#2ca02c" stroke-width="2"/>
<text x="108" y="85" font-family="Arial" font-size="12">Attachment 2 HI2</text>
</svg>